:SAMPLES-PER-SECOND 30
:FULLY-SPECIFIED
:DEGREES
168
root  32.2484 37.9539 7.94357 158.579 81.7924 156.215
RightUpLeg  -32.9783 -26.2134 -1.76974
RightLeg  23.6361 -0.9909 -0.740157
RightFoot  7.60822 0.899657 -5.06265
RightToes  0.00048216 0.542163 -0.142577
Spine  39.0595 -2.74917 7.59029
Spine1  12.4913 -0.0718107 -1.42368
HEad  2.04568 -15.2164 6.1884
LeftShoulder1  11.1739 -19.5045 -42.1347
LeftArm  -11.4029 -53.8082 -26.1246
LeftForeArm  -0.5296 -22.4564 -4.96249
LeftHand  -0.25398 0.0180481 5.50724
RightShoulder  6.09967 13.6117 29.6486
RightArm  -10.9125 50.6032 26.6307
RightForeArm  -27.1321 20.8862 6.58018
RightHand  -0.561792 7.76073 -5.41429
LeftUpLeg  -29.8339 12.6633 2.97737
LeftLeg  53.4898 10.945 15.7883
LeftFoot  5.30215 -0.109916 0.679368
LeftToes  1.06246e-005 4.65855e-005 -8.185e-006
169
root  32.6219 38.0251 8.60395 161.198 81.6887 157.694
RightUpLeg  -34.0893 -25.483 -0.322151
RightLeg  24.3034 -1.44239 -0.943135
RightFoot  6.94615 1.01528 -5.99904
RightToes  0.00048216 0.542163 -0.142577
Spine  40.8556 -2.65453 7.47309
Spine1  12.8435 -0.0937336 -1.09746
HEad  -0.194503 -15.057 7.09719
LeftShoulder1  11.2736 -19.8933 -41.774
LeftArm  -13.5885 -55.3743 -24.5527
LeftForeArm  -0.25241 -22.6697 -4.9523
LeftHand  -0.25398 0.0180481 5.50724
RightShoulder  5.87549 13.4601 28.625
RightArm  -12.7356 52.2102 26.3064
RightForeArm  -26.7082 20.8816 6.52625
RightHand  -0.695835 8.46912 -6.29434
LeftUpLeg  -33.6139 13.8077 0.961773
LeftLeg  53.2486 9.39139 13.7012
LeftFoot  4.32977 -0.456585 3.12459
LeftToes  1.06246e-005 4.65855e-005 -8.185e-006
170
root  32.9953 38.1483 9.14393 163.65 81.6542 158.645
RightUpLeg  -35.235 -25.2165 1.23251
RightLeg  24.2119 -1.62888 -1.0311
RightFoot  6.42597 1.07143 -6.56103
RightToes  0.00048216 0.542163 -0.142577
Spine  42.5748 -2.89321 7.49498
Spine1  12.9087 -0.183808 -1.35213
HEad  -2.17112 -14.6825 7.25219
LeftShoulder1  11.3024 -20.231 -41.2394
LeftArm  -15.9415 -56.7814 -22.6439
LeftForeArm  0.0931281 -22.6603 -4.93013
LeftHand  -0.25398 0.0180481 5.50724
RightShoulder  5.68015 13.3756 27.6138
RightArm  -14.4603 53.8672 26.097
RightForeArm  -26.0829 20.5576 6.53673
RightHand  -0.823473 9.03985 -7.09914
LeftUpLeg  -36.2016 14.8072 -1.75548
LeftLeg  49.4116 6.6289 8.68061
LeftFoot  1.00476 -0.189926 1.63894
LeftToes  1.06246e-005 4.65855e-005 -8.185e-006
171
root  33.3289 38.2774 9.58844 168.036 81.1068 161.35
RightUpLeg  -36.4336 -26.075 3.10095
RightLeg  23.7362 -1.66114 -1.02907
RightFoot  5.5522 1.06399 -6.89542
RightToes  0.00048216 0.542163 -0.142577
Spine  44.5262 -3.49667 7.75347
Spine1  12.4248 -0.673912 -1.16555
HEad  -4.17816 -14.2753 6.98949
LeftShoulder1  11.2858 -20.45 -40.7616
LeftArm  -18.1291 -58.1814 -20.3561
LeftForeArm  0.41703 -22.5273 -4.90473
LeftHand  -0.25398 0.0180481 5.50724
RightShoulder  5.49412 13.3266 26.5712
RightArm  -16.1037 55.5587 25.6976
RightForeArm  -24.9784 19.9702 6.59075
RightHand  -0.888152 9.36145 -7.46687
LeftUpLeg  -37.8587 15.5535 -4.78912
LeftLeg  42.8822 4.91976 5.24391
LeftFoot  -1.81229 0.156876 -1.76404
LeftToes  1.06246e-005 4.65855e-005 -8.185e-006
172
root  33.6095 38.3988 9.9698 172.031 80.2342 163.549
RightUpLeg  -37.9007 -27.4051 5.04244
RightLeg  23.0073 -1.2435 -0.806224
RightFoot  5.18542 1.11679 -7.42731
RightToes  0.00048216 0.542163 -0.142577
Spine  46.3923 -3.92248 8.02947
Spine1  12.1836 -1.13573 -0.236105
HEad  -6.62031 -14.2693 6.84208
LeftShoulder1  11.4005 -20.8527 -40.4643
LeftArm  -19.8285 -60.0312 -18.0818
LeftForeArm  0.51865 -22.0056 -4.89897
LeftHand  -0.25398 0.0180481 5.50724
RightShoulder  5.29132 13.2159 25.5343
RightArm  -18.6812 57.1486 23.9684
RightForeArm  -23.4723 19.2123 6.66085
RightHand  -0.868155 9.56358 -7.2215
LeftUpLeg  -38.4581 16.9238 -8.48287
LeftLeg  33.8264 3.82714 3.14324
LeftFoot  -3.44541 0.337058 -4.46902
LeftToes  1.06246e-005 4.65855e-005 -8.185e-006
173
root  33.8609 38.4389 10.263 175.208 80.0684 164.816
RightUpLeg  -39.8923 -27.7138 6.92504
RightLeg  22.7671 -0.817151 -0.601375
RightFoot  5.15629 1.20543 -8.05213
RightToes  0.00048216 0.542163 -0.142577
Spine  48.0846 -3.92929 8.46045
Spine1  12.1613 -0.909657 0.556006
HEad  -9.18079 -14.6194 6.79204
LeftShoulder1  11.6131 -21.5668 -39.9942
LeftArm  -21.1999 -62.0687 -16.3704
LeftForeArm  0.539628 -21.1147 -4.9596
LeftHand  -0.25398 0.0180481 5.50724
RightShoulder  5.11588 13.0685 24.7232
RightArm  -22.3536 58.4215 20.5346
RightForeArm  -22.2883 18.3987 6.75118
RightHand  -0.82313 9.85334 -6.75847
LeftUpLeg  -38.5711 19.204 -12.5051
LeftLeg  24.1328 1.09139 0.920295
LeftFoot  -2.38002 0.301706 -3.80157
LeftToes  1.06246e-005 4.65855e-005 -8.185e-006
174
root  34.0812 38.3919 10.4692 178.524 80.6844 166.263
RightUpLeg  -41.9588 -26.5824 8.45894
RightLeg  23.1361 -1.15619 -0.766684
RightFoot  4.733 1.21611 -8.36062
RightToes  0.00048216 0.542163 -0.142577
Spine  50.2579 -3.96835 8.89772
Spine1  11.6893 -0.218846 0.575691
HEad  -11.5121 -14.5996 6.64582
LeftShoulder1  11.6358 -22.1789 -39.0137
LeftArm  -23.0662 -63.8308 -14.6699
LeftForeArm  0.642553 -20.2506 -5.07151
LeftHand  -0.25398 0.0180481 5.50724
RightShoulder  5.00456 13.1266 23.908
RightArm  -26.5724 59.5502 16.5138
RightForeArm  -21.4819 17.4351 6.8764
RightHand  -0.794403 10.2613 -6.39106
LeftUpLeg  -39.1014 19.996 -14.9145
LeftLeg  17.5938 -1.13966 -0.365509
LeftFoot  1.64798 -0.170997 1.26558
LeftToes  1.06246e-005 4.65855e-005 -8.185e-006
175
root  34.2528 38.287 10.6502 -177.456 81.0773 168.613
RightUpLeg  -43.8991 -25.1069 9.62396
RightLeg  23.9647 -2.13506 -1.26494
RightFoot  3.83416 1.14952 -8.40993
RightToes  0.00048216 0.542163 -0.142577
Spine  52.873 -4.36723 9.24817
Spine1  10.9088 0.0864207 0.54489
HEad  -14.1478 -13.776 6.60785
LeftShoulder1  11.3653 -22.36 -37.7
LeftArm  -26.5184 -65.6517 -11.4685
LeftForeArm  0.608111 -19.5224 -5.18463
LeftHand  -0.25398 0.0180481 5.50724
RightShoulder  4.85957 13.4908 22.3234
RightArm  -31.8065 60.9102 12.7486
RightForeArm  -20.0761 16.2404 6.90375
RightHand  -0.738267 10.7065 -5.8341
LeftUpLeg  -40.415 17.5287 -14.1337
LeftLeg  16.3813 0.501501 -0.415075
LeftFoot  5.05489 -1.02056 6.96309
LeftToes  1.06246e-005 4.65855e-005 -8.185e-006
176
root  34.4123 38.1105 10.8589 -174.227 80.7196 169.943
RightUpLeg  -46.64 -24.2434 10.7214
RightLeg  25.6238 -3.00096 -1.79694
RightFoot  2.68358 1.07199 -8.5438
RightToes  0.00048216 0.542163 -0.142577
Spine  55.0464 -4.9084 9.70228
Spine1  9.80519 -0.195785 0.79019
HEad  -17.1861 -12.7175 7.14293
LeftShoulder1  10.9676 -22.4291 -36.1007
LeftArm  -31.4035 -67.6143 -6.88721
LeftForeArm  0.311965 -18.7297 -5.31866
LeftHand  -0.25398 0.0180481 5.50724
RightShoulder  4.66652 13.8115 20.5632
RightArm  -37.7549 62.1524 8.85475
RightForeArm  -18.2161 15.3545 6.66976
RightHand  -0.616108 11.1102 -4.8554
LeftUpLeg  -43.8105 17.2843 -14.9384
LeftLeg  18.7724 -0.297465 0.257707
LeftFoot  5.39953 -1.26025 8.31658
LeftToes  1.06246e-005 4.65855e-005 -8.185e-006
177
root  34.5982 37.8648 11.0532 -172.373 80.3322 169.618
RightUpLeg  -50.1788 -23.8673 11.9325
RightLeg  27.9853 -3.25942 -2.11255
RightFoot  1.39436 0.995936 -8.81374
RightToes  0.00048216 0.542163 -0.142577
Spine  56.5465 -5.30432 10.3332
Spine1  9.00713 -0.344224 0.68283
HEad  -20.3116 -12.2075 8.03054
LeftShoulder1  10.6666 -22.8741 -34.2716
LeftArm  -37.5435 -69.595 -1.98127
LeftForeArm  0.323387 -17.8494 -5.39161
LeftHand  -0.25398 0.0180481 5.50724
RightShoulder  4.40776 13.6475 19.2218
RightArm  -43.7856 62.9897 4.2473
RightForeArm  -17.0661 15.296 6.269
RightHand  -0.488351 11.3851 -3.90926
LeftUpLeg  -47.6071 17.3647 -15.4893
LeftLeg  21.7966 -0.960867 -0.0963585
LeftFoot  4.00303 -0.861975 6.20884
LeftToes  1.06246e-005 4.65855e-005 -8.185e-006
178
root  34.7925 37.5787 11.2089 -172.222 80.6933 167.281
RightUpLeg  -54.0507 -23.0293 12.9495
RightLeg  30.4585 -3.21847 -2.28836
RightFoot  0.0744357 0.907884 -9.04935
RightToes  0.00048216 0.542163 -0.142577
Spine  57.8249 -5.30724 10.332
Spine1  8.71864 -0.0400198 0.0469463
HEad  -23.1096 -11.9971 8.6355
LeftShoulder1  10.4242 -23.3858 -32.5963
LeftArm  -45.0811 -71.3 3.31972
LeftForeArm  0.956287 -17.144 -5.25033
LeftHand  -0.25398 0.0180481 5.50724
RightShoulder  4.08965 13.1831 17.9412
RightArm  -49.3941 63.6123 -0.554668
RightForeArm  -17.1204 15.8723 5.92532
RightHand  -0.451843 11.4908 -3.64033
LeftUpLeg  -51.7048 18.1445 -17.1722
LeftLeg  24.1969 -2.16789 -0.728131
LeftFoot  3.06695 -0.711662 5.48818
LeftToes  1.06246e-005 4.65855e-005 -8.185e-006
179
root  34.9639 37.2747 11.3437 -172.687 81.4171 164.272
RightUpLeg  -57.7633 -21.5963 13.6099
RightLeg  32.7539 -3.33649 -2.56437
RightFoot  -1.14806 0.814845 -9.19383
RightToes  0.00048216 0.542163 -0.142577
Spine  59.391 -5.14722 9.62311
Spine1  8.19156 0.183469 -0.444943
HEad  -25.4464 -11.3552 8.75602
LeftShoulder1  10.2046 -23.4217 -31.7286
LeftArm  -53.8405 -72.4956 10.1446
LeftForeArm  1.51922 -16.5521 -4.99149
LeftHand  -0.25398 0.0180481 5.50724
RightShoulder  3.79424 13.0177 16.2724
RightArm  -54.366 64.155 -4.86513
RightForeArm  -17.7483 16.4711 5.70412
RightHand  -0.513583 11.5653 -4.04771
LeftUpLeg  -55.6715 18.0934 -18.6267
LeftLeg  26.4322 -2.01623 -0.744738
LeftFoot  2.56414 -0.889326 7.16491
LeftToes  1.06246e-005 4.65855e-005 -8.185e-006
